<svg width="32" height="32" viewBox="0 0 32 32" fill="none" xmlns="http://www.w3.org/2000/svg"><style>@media (prefers-color-scheme: dark) {path {fill: #fbfbd5;}}</style><path d="M22.9269 1.76758C21.0291 2.5492 19.152 3.33082 17.3409 4.23102C15.5326 5.10454 13.807 6.14432 12.1858 7.33733C10.5773 8.50783 9.18302 9.95466 8.06582 11.6125C7.51848 12.4514 7.07019 13.3526 6.73014 14.2977C6.55853 14.7763 6.41358 15.2642 6.29602 15.7593C6.2356 16.0086 6.18473 16.2594 6.13703 16.5135C6.08932 16.7676 6.05116 17.0225 6.01299 17.2798C5.98994 17.0209 5.98199 16.7603 5.97881 16.499C5.97563 16.2376 5.98834 15.9763 6.00584 15.7142C6.04235 15.188 6.1181 14.6654 6.23243 14.1509C6.46597 13.1112 6.84452 12.1106 7.35663 11.1793C7.87173 10.2466 8.49527 9.38004 9.21387 8.59809C9.57005 8.20607 9.94848 7.83664 10.3389 7.48172C10.7292 7.1268 11.1395 6.79689 11.5577 6.47989C13.2382 5.24105 15.0695 4.22787 17.0062 3.46552C18.9178 2.69718 20.9016 2.12827 22.9269 1.76758Z" fill="#382824"/><path d="M8.41876 15.9819C3.88697 21.5476 15.3421 31.9636 17.2526 24.4579C18.4451 19.3697 12.9553 11.6173 7.9441 16.2223" fill="#382824"/><path d="M5.77523 23.1698C5.7323 23.4868 5.67348 23.799 5.61624 24.1095L5.43892 25.0363C5.32205 25.651 5.20836 26.2608 5.12091 26.8674C5.02988 27.4573 4.98733 28.0538 4.99369 28.6508C4.998 28.9255 5.03159 29.199 5.09388 29.4663C5.12239 29.5858 5.16151 29.7025 5.21075 29.8148C5.22268 29.8406 5.2354 29.8672 5.24812 29.8955L5.26799 29.9317L5.29582 29.9801C5.32285 30.0253 5.35784 30.0802 5.39282 30.127C5.53402 30.3226 5.71279 30.4872 5.91836 30.6109C6.14096 30.747 6.38204 30.8492 6.6339 30.9142C7.19057 31.0524 7.76336 31.1121 8.3361 31.0917C8.94007 31.077 9.5428 31.029 10.1417 30.9481C10.4462 30.9102 10.7515 30.8674 11.0584 30.8207C11.3653 30.7739 11.6729 30.7263 11.9854 30.6835C11.7103 30.8392 11.4288 30.9779 11.1395 31.1062C10.8501 31.2344 10.5583 31.3482 10.2601 31.4579C9.65745 31.6737 9.03579 31.8307 8.40367 31.9265C8.24466 31.9491 8.08089 31.9677 7.9179 31.9814C7.75491 31.9951 7.58956 31.9999 7.42259 31.9999C7.08191 32.002 6.74193 31.9682 6.40811 31.8991C6.05382 31.8258 5.7129 31.6971 5.39758 31.5176C5.06747 31.3241 4.78009 31.0638 4.55325 30.7529C4.4961 30.6734 4.44301 30.5911 4.39423 30.5061L4.36084 30.4464L4.32585 30.3794C4.3028 30.3351 4.28214 30.2899 4.26226 30.2447C4.18664 30.0696 4.12856 29.8872 4.08892 29.7003C4.01882 29.3533 3.98999 28.9991 4.00306 28.6452C4.01431 28.3105 4.04913 27.977 4.10722 27.6474C4.16128 27.3247 4.23522 27.0021 4.3187 26.6932C4.66671 25.465 5.15557 24.2824 5.77523 23.1698Z" fill="#382824"/><path d="M12.2366 11.9948C12.4814 11.7522 12.7476 11.5327 13.0316 11.339C13.3186 11.1452 13.6191 10.9729 13.9308 10.8236C14.5597 10.5267 15.2214 10.3073 15.9018 10.1702C17.2712 9.90084 18.6759 9.87138 20.0551 10.0831C20.7474 10.1847 21.4307 10.3419 22.0984 10.5534C22.7713 10.7637 23.4247 11.0336 24.0511 11.36C24.6855 11.6904 25.2831 12.089 25.8335 12.549C26.3944 13.0183 26.8867 13.5661 27.2957 14.1759C27.4995 14.4866 27.6767 14.8145 27.8251 15.156C28.2796 16.1934 28.4245 17.3432 28.2418 18.4632C28.1225 19.1899 27.8946 19.8938 27.566 20.5507C27.4068 20.8738 27.2289 21.1871 27.0333 21.4888C26.8382 21.7872 26.6286 22.0756 26.4052 22.3527C25.5143 23.4405 24.4524 24.3715 23.2624 25.1081C22.6765 25.4751 22.0614 25.7916 21.4234 26.0543C21.1054 26.1834 20.7818 26.2963 20.4542 26.3988C20.1271 26.4963 19.7944 26.5736 19.458 26.6303C20.7227 26.1686 21.9084 25.5092 22.9721 24.6758C24.0307 23.8731 24.9682 22.9179 25.7548 21.8405C25.9464 21.5735 26.1253 21.2977 26.2883 21.0153C26.4523 20.7353 26.6004 20.4461 26.7319 20.149C26.9937 19.5674 27.171 18.9504 27.2583 18.3172C27.3846 17.388 27.2516 16.4414 26.8743 15.5851C26.7475 15.2987 26.597 15.0237 26.4243 14.7632C26.0726 14.2342 25.6498 13.7577 25.1681 13.3475C24.6788 12.9262 24.1484 12.5568 23.5852 12.2449C21.2576 10.9785 18.6146 10.4338 15.9844 10.6784C15.3243 10.746 14.673 10.8839 14.0413 11.0898C13.7238 11.1945 13.414 11.322 13.1143 11.4713C12.8084 11.6218 12.5149 11.7968 12.2366 11.9948Z" fill="#382824"/><path d="M18.6861 29.7841C18.638 29.7789 18.5902 29.7711 18.543 29.7607C18.4977 29.7486 18.4523 29.7365 18.407 29.7228C18.3182 29.6945 18.2318 29.6589 18.1486 29.6163C18.0628 29.4776 17.9769 29.3413 17.9038 29.1993C17.7619 28.9226 17.6356 28.6379 17.5253 28.3467C17.4148 28.0644 17.3122 27.7877 17.1961 27.5304C17.1401 27.4049 17.0772 27.2826 17.0077 27.1642C17.0133 27.0835 17.0157 27.0029 17.0181 26.9125C17.0181 26.8681 17.0181 26.8246 17.0181 26.7794C17.0181 26.7343 17.0181 26.6875 17.0181 26.6375C17.0657 26.6441 17.113 26.6535 17.1596 26.6657C17.2049 26.6786 17.2494 26.6939 17.2948 26.7109C17.383 26.7449 17.4683 26.7862 17.55 26.8343C17.6318 26.9733 17.7058 27.1168 17.7718 27.2642C17.9014 27.5514 18.0063 27.8369 18.1145 28.1112C18.2159 28.38 18.3321 28.6429 18.4627 28.8984C18.5251 29.021 18.5966 29.1386 18.6765 29.2501L18.6813 29.505L18.6861 29.7841Z" fill="#382824"/><path d="M15.5838 28.087C15.6236 28.0991 15.6577 28.1144 15.6943 28.1273L15.7945 28.1668C15.8613 28.1926 15.9217 28.2193 15.9805 28.2475C16.0091 28.337 16.0513 28.4217 16.0886 28.5096C16.1681 28.6839 16.2532 28.8589 16.3399 29.0372C16.4266 29.2154 16.5164 29.3961 16.6007 29.5833C16.6428 29.6768 16.6842 29.772 16.7231 29.8688C16.6763 30.0104 16.6131 30.1458 16.5347 30.2721C16.3836 30.2189 16.2636 30.164 16.1372 30.1108C16.1022 30.0237 16.064 29.9366 16.0251 29.8495C15.9456 29.6752 15.8597 29.4994 15.7722 29.3219C15.6848 29.1445 15.5957 28.9622 15.5115 28.775C15.4677 28.6815 15.4319 28.5847 15.3866 28.4895C15.4088 28.4214 15.4353 28.3548 15.4661 28.2902L15.5162 28.1894C15.5417 28.1539 15.5592 28.1217 15.5838 28.087Z" fill="#382824"/><path d="M24.2498 1.27551C25.4424 -0.418406 27.8276 -0.660393 27.5891 2.00147C26.935 2.27835 26.2103 2.33371 25.5228 2.15932C24.8352 1.98493 24.2215 1.5901 23.7728 1.03352" fill="#382824"/></svg>